<?xml version="1.0" encoding="UTF-8"?>
<svg enable-background="new 0 0 300 300" viewBox="0 0 300 300" xmlns="http://www.w3.org/2000/svg">
 <path d="m15.338,62.52c2.934.439 5.825,1.138 8.646,2.055 27.21,7.782 55.021,13.99 81.076,25.289 4.725,1.9 8.41,6.173 9.515,11.137 .944,4.639-3.089,8.78-7.526,9.216-3.777.271-7.802.633-11.333-1.034-18.147-9.46-35.379-20.537-53.254-30.479-9.485-4.621-18.17-10.651-27.124-16.184z" fill="none" stroke="#000" stroke-miterlimit="10" stroke-width=".1"/>
 <path d="m15.338,62.52c2.934.439 5.825,1.138 8.646,2.055 27.21,7.782 55.021,13.99 81.076,25.289 4.725,1.9 8.41,6.173 9.515,11.137 .944,4.639-3.089,8.78-7.526,9.216-3.777.271-7.802.633-11.333-1.034-18.147-9.46-35.379-20.537-53.254-30.479-9.485-4.621-18.17-10.651-27.124-16.184z"/>
 <path d="m147.667,64.953c5.62-.766 11.438,1.053 15.955,4.404 5.181,3.9 7.921,10.295 8.524,16.625-.292,6.198-2.81,12.498-7.566,16.618-5.786,4.997-14.323,6.783-21.515,3.987-9.506-3.207-15.771-13.864-13.977-23.726 1.551-9.171 9.318-16.754 18.579-17.908z" fill="none" stroke="#000" stroke-miterlimit="10" stroke-width=".1"/>
 <path d="m147.667,64.953c5.62-.766 11.438,1.053 15.955,4.404 5.181,3.9 7.921,10.295 8.524,16.625-.292,6.198-2.81,12.498-7.566,16.618-5.786,4.997-14.323,6.783-21.515,3.987-9.506-3.207-15.771-13.864-13.977-23.726 1.551-9.171 9.318-16.754 18.579-17.908z"/>
 <path d="m154.497,119.427c2.606-2.212 6.336-2.371 9.537-1.632 4.358,1.058 7.169,4.832 10.659,7.353 13.609,12.094 26.258,25.224 40.168,36.996 3.775,3.112 6.716,7.174 10.654,10.072 7.778,1.641 15.672,2.94 23.537,4.101 9.168-5.257 19.61-7.317 29.94-8.877 5.513.19 11.857,1.33 15.353,6.058 5.695,7.258 3.859,18.32-2.102,24.846-4.666,4.822-12.197,4.014-18.066,2.285-9.898-3.813-19.047-10.195-25.081-19.025-12.508-2.155-25.04-4.164-37.55-6.301 .301-1.734.611-3.464.922-5.192 2.588.411 5.17.924 7.655,1.78-10.704-4.738-20.882-10.573-31.28-15.93-8.609-4.434-16.738-9.709-24.898-14.903-4.139-2.629-8.556-5.555-10.592-10.211-1.533-3.641-1.736-8.377 1.144-11.42z" fill="none" stroke="#000" stroke-miterlimit="10" stroke-width=".1"/>
 <path d="m154.497,119.427c2.606-2.212 6.336-2.371 9.537-1.632 4.358,1.058 7.169,4.832 10.659,7.353 13.609,12.094 26.258,25.224 40.168,36.996 3.775,3.112 6.716,7.174 10.654,10.072 7.778,1.641 15.672,2.94 23.537,4.101 9.168-5.257 19.61-7.317 29.94-8.877 5.513.19 11.857,1.33 15.353,6.058 5.695,7.258 3.859,18.32-2.102,24.846-4.666,4.822-12.197,4.014-18.066,2.285-9.898-3.813-19.047-10.195-25.081-19.025-12.508-2.155-25.04-4.164-37.55-6.301 .301-1.734.611-3.464.922-5.192 2.588.411 5.17.924 7.655,1.78-10.704-4.738-20.882-10.573-31.28-15.93-8.609-4.434-16.738-9.709-24.898-14.903-4.139-2.629-8.556-5.555-10.592-10.211-1.533-3.641-1.736-8.377 1.144-11.42z"/>
 <path d="m112.773,163.863c10.751-7.418 23.419-11.88 36.281-13.877 6.313-.729 13.424-.876 18.815,3.014 4.917,4.593 3.722,12.024 3.916,18.088-1.328,18.278-5.692,36.46-13.423,53.107-2.529,5.271-5.31,10.646-9.911,14.43 1.132-16.175 1.711-32.384 2.266-48.59 .205-5.004.941-9.993.57-15.01-6.381,3.079-12.937,5.783-19.262,8.977-5.378,2.252-11.345,3.014-17.142,2.736-4.524.062-8.947-4.028-8.736-8.637-.197-5.439 1.891-11.201 6.626-14.238z" fill="none" stroke="#000" stroke-miterlimit="10" stroke-width=".1"/>
 <path d="m112.773,163.863c10.751-7.418 23.419-11.88 36.281-13.877 6.313-.729 13.424-.876 18.815,3.014 4.917,4.593 3.722,12.024 3.916,18.088-1.328,18.278-5.692,36.46-13.423,53.107-2.529,5.271-5.31,10.646-9.911,14.43 1.132-16.175 1.711-32.384 2.266-48.59 .205-5.004.941-9.993.57-15.01-6.381,3.079-12.937,5.783-19.262,8.977-5.378,2.252-11.345,3.014-17.142,2.736-4.524.062-8.947-4.028-8.736-8.637-.197-5.439 1.891-11.201 6.626-14.238z"/>
 <path d="m82.226,172.229c2.46-3.689 6.066-7.445 10.791-7.619 4.196.41 8.866,2.922 9.908,7.316 2.189,8.385-.548,17.092-4.28,24.616-4.993,10.152-11.294,19.802-19.515,27.646-5.867,5.909-14.072,9.011-22.139,10.39-18.153,1.43-36.349,3.063-54.572,2.693 17.462-6.693 35.657-11.788 52.074-20.93 3.785-1.979 7.752-4.104 10.205-7.736 7.444-11.316 10.573-24.802 17.528-36.376z" fill="none" stroke="#000" stroke-miterlimit="10" stroke-width=".1"/>
 <path d="m82.226,172.229c2.46-3.689 6.066-7.445 10.791-7.619 4.196.41 8.866,2.922 9.908,7.316 2.189,8.385-.548,17.092-4.28,24.616-4.993,10.152-11.294,19.802-19.515,27.646-5.867,5.909-14.072,9.011-22.139,10.39-18.153,1.43-36.349,3.063-54.572,2.693 17.462-6.693 35.657-11.788 52.074-20.93 3.785-1.979 7.752-4.104 10.205-7.736 7.444-11.316 10.573-24.802 17.528-36.376z"/>
 <path d="m252.938,178.945c7.715-4.127 16.452-5.48 24.912-7.256 4.418-.174 9.475.389 12.672,3.801 2.191,2.547 3.507,5.963 2.961,9.35-.234,4.993-2.444,10.892-7.619,12.574-7.376,1.791-14.381-2.148-20.392-5.958-4.915-3.259-10.197-6.858-12.534-12.511z" fill="none" stroke="#fff" stroke-miterlimit="10" stroke-width=".1"/>
 <path d="m252.938,178.945c7.715-4.127 16.452-5.48 24.912-7.256 4.418-.174 9.475.389 12.672,3.801 2.191,2.547 3.507,5.963 2.961,9.35-.234,4.993-2.444,10.892-7.619,12.574-7.376,1.791-14.381-2.148-20.392-5.958-4.915-3.259-10.197-6.858-12.534-12.511z" fill="#fff"/>
 <path d="m253.813,191.875c4.177,0 7.563,3.386 7.563,7.563s-3.387,7.562-7.563,7.562-7.563-3.386-7.563-7.563 3.386-7.562 7.563-7.562m0,6c-.861,0-1.563.701-1.563,1.563s.701,1.563 1.563,1.563 1.563-.701 1.563-1.563-.702-1.563-1.563-1.563z"/>
</svg>
